<?xml version="1.0" standalone="no"?>
<!DOCTYPE svg PUBLIC "-//W3C//DTD SVG 20010904//EN"
 "http://www.w3.org/TR/2001/REC-SVG-20010904/DTD/svg10.dtd">
<svg version="1.0" xmlns="http://www.w3.org/2000/svg"
 width="2048.000000pt" height="2048.000000pt" viewBox="0 0 2048.000000 2048.000000"
 preserveAspectRatio="xMidYMid meet">
<metadata>
Created by potrace 1.14, written by Peter Selinger 2001-2017
</metadata>
<g transform="translate(0.000000,2048.000000) scale(0.100000,-0.100000)"
fill="#000000" stroke="none">
<path d="M10019 20476 c-2 -2 -56 -7 -119 -10 -63 -4 -131 -9 -150 -11 -49 -6
-129 -15 -170 -19 -74 -8 -138 -17 -210 -31 -41 -8 -93 -17 -115 -20 -48 -7
-80 -13 -80 -15 0 -1 -11 -3 -25 -5 -14 -2 -63 -13 -110 -24 -47 -12 -94 -23
-105 -25 -11 -2 -69 -18 -130 -36 -60 -18 -117 -34 -125 -35 -74 -17 -429
-149 -565 -210 -143 -64 -280 -130 -285 -136 -3 -3 -16 -10 -28 -14 -13 -4
-62 -29 -109 -56 -46 -27 -89 -49 -94 -49 -5 0 -9 -5 -9 -10 0 -6 -3 -9 -7 -8
-10 3 -83 -40 -196 -114 -49 -32 -90 -58 -93 -58 -3 0 -46 -30 -97 -67 -51
-36 -106 -76 -124 -88 -53 -37 -117 -88 -130 -104 -7 -8 -13 -11 -13 -7 0 4
-6 1 -13 -6 -8 -7 -31 -26 -52 -43 -21 -16 -45 -37 -54 -45 -9 -9 -45 -40 -80
-70 -72 -61 -80 -68 -210 -193 -50 -49 -91 -93 -91 -98 0 -5 -6 -9 -14 -9 -8
0 -16 -4 -18 -9 -1 -5 -38 -46 -80 -92 -87 -96 -106 -117 -156 -178 -21 -25
-45 -53 -54 -63 -10 -10 -18 -20 -18 -23 0 -3 -6 -13 -14 -22 -14 -17 -70 -87
-99 -123 -7 -8 -23 -31 -37 -50 -13 -19 -30 -41 -37 -48 -7 -7 -13 -17 -13
-22 0 -5 -6 -15 -13 -22 -23 -24 -247 -370 -247 -382 0 -2 -20 -38 -44 -79
-76 -128 -252 -496 -300 -627 -16 -41 -37 -95 -48 -120 -11 -25 -21 -49 -22
-55 -1 -5 -5 -16 -9 -22 -5 -7 -6 -13 -3 -13 3 0 -4 -24 -15 -52 -12 -29 -22
-60 -24 -68 -2 -8 -14 -51 -28 -95 -24 -75 -45 -148 -48 -170 -1 -5 -6 -21
-11 -35 -6 -14 -11 -34 -13 -45 -2 -11 -13 -58 -24 -105 -21 -83 -31 -135 -36
-175 -1 -11 -3 -20 -4 -20 -2 0 -4 -11 -7 -25 -4 -27 -24 -142 -30 -175 -5
-26 -15 -111 -19 -155 -2 -19 -4 -35 -5 -35 -1 0 -4 -25 -15 -155 -4 -47 -9
-101 -12 -120 -3 -19 -6 -903 -8 -1963 -1 -1060 -6 -1931 -9 -1935 -4 -4 -123
-8 -264 -9 -306 -2 -323 -4 -452 -45 -160 -51 -310 -156 -425 -299 -78 -97
-155 -273 -171 -393 -3 -22 -7 -43 -10 -47 -7 -12 -6 -2308 1 -2319 4 -6 -358
-9 -957 -10 -1019 0 -1387 -4 -1428 -14 -14 -3 -35 -8 -48 -10 -53 -11 -142
-41 -142 -48 0 -4 -7 -8 -15 -8 -8 0 -37 -13 -65 -30 -28 -17 -55 -30 -59 -30
-5 0 -11 -7 -15 -15 -3 -8 -12 -15 -20 -15 -15 0 -171 -150 -196 -189 -8 -13
-23 -34 -33 -46 -9 -13 -17 -26 -17 -29 0 -4 -11 -24 -25 -46 -14 -22 -23 -40
-20 -40 3 0 -4 -17 -15 -37 -11 -21 -20 -45 -20 -54 0 -8 -3 -19 -7 -23 -8 -7
-9 -13 -18 -66 -4 -19 -9 -46 -12 -60 -3 -14 -7 -864 -8 -1889 -2 -1908 -1
-1956 35 -2051 1 -3 3 -9 4 -15 2 -15 39 -109 45 -115 4 -3 7 -10 8 -17 3 -14
62 -112 78 -129 5 -6 28 -34 50 -62 22 -28 44 -51 49 -52 4 0 16 -10 26 -23
21 -26 152 -117 169 -117 6 0 11 -4 11 -10 0 -5 5 -10 10 -10 6 0 30 -9 52
-20 23 -11 49 -20 58 -20 9 0 20 -4 26 -8 33 -30 394 -63 394 -37 0 6 3 6 8 0
4 -6 18 -9 32 -8 33 4 40 4 78 0 17 -2 32 1 32 6 0 4 6 5 13 0 17 -10 187 -10
187 1 0 5 6 4 12 -1 15 -10 109 -10 126 1 7 4 12 3 12 -1 0 -12 134 -10 142 2
5 6 8 6 8 -1 0 -7 12 -10 28 -7 32 5 37 5 80 0 17 -2 32 1 32 6 0 4 6 5 13 0
17 -10 187 -10 187 1 0 5 6 4 12 -1 14 -10 214 -10 224 0 4 4 15 2 25 -4 13
-7 19 -6 19 1 0 6 5 8 13 3 16 -10 187 -10 187 0 0 5 6 5 13 0 18 -11 111 -10
119 2 5 6 8 6 8 -1 0 -7 12 -10 28 -7 32 5 37 5 80 0 17 -2 32 1 32 6 0 4 6 5
13 0 16 -10 187 -10 187 0 0 5 6 5 12 1 17 -11 118 -12 118 -1 0 4 4 5 10 2 6
-4 9 -423 9 -1166 0 -638 2 -1163 5 -1167 2 -4 7 -31 11 -60 3 -29 12 -67 20
-85 7 -18 14 -35 14 -39 6 -36 88 -201 114 -229 10 -10 15 -19 11 -19 -16 0
168 -172 221 -206 90 -59 219 -119 235 -109 5 3 11 1 14 -4 5 -8 21 -11 126
-29 50 -9 11766 -8 11820 0 25 4 56 10 70 14 14 3 33 7 43 7 9 1 17 5 17 10 0
4 4 6 9 2 5 -3 12 -1 16 5 3 5 13 10 21 10 55 0 230 113 330 214 70 71 154
189 154 217 0 5 4 9 10 9 5 0 9 3 9 8 -1 4 4 23 12 42 7 19 12 38 11 42 -1 5
3 8 9 8 5 0 8 4 4 9 -3 5 -1 12 4 16 5 3 10 13 10 23 0 9 4 35 10 57 6 22 13
67 16 100 9 83 10 333 3 341 -4 3 -3 16 1 28 4 11 6 37 4 56 -4 36 -4 59 1 95
1 11 -2 28 -6 38 -5 9 -5 17 -1 17 6 0 8 700 3 865 0 6 1 144 2 308 2 163 -1
297 -5 297 -5 0 -5 5 -2 10 8 13 10 148 2 156 -3 3 -1 19 3 35 5 16 5 31 0 34
-14 9 1 37 16 31 8 -3 14 0 14 6 0 7 5 6 15 -2 11 -9 15 -9 15 -1 0 7 5 9 13
4 17 -10 187 -10 187 1 0 5 6 4 13 -1 14 -10 108 -10 125 1 7 4 12 3 12 -1 0
-12 134 -10 142 2 5 6 8 6 8 -1 0 -7 12 -10 28 -7 32 5 37 5 80 0 17 -2 32 1
32 6 0 4 6 5 13 0 17 -10 187 -10 187 1 0 5 6 4 13 -1 13 -10 213 -10 223 0 4
4 15 2 25 -4 13 -7 19 -6 19 1 0 6 5 8 13 3 16 -10 187 -10 187 0 0 5 6 5 13
0 18 -11 111 -10 119 2 5 6 8 6 8 -1 0 -7 12 -10 28 -7 32 5 37 5 80 0 17 -2
32 1 32 6 0 4 6 5 13 0 16 -10 187 -10 187 0 0 5 6 5 13 0 18 -11 111 -10 119
2 5 6 8 6 8 -1 0 -7 12 -10 28 -7 15 2 32 4 37 4 6 0 38 -2 73 -3 37 -2 62 1
62 7 0 7 3 7 8 0 7 -11 10 -11 102 -2 59 6 155 24 180 34 8 4 17 7 20 8 88 30
175 76 249 130 81 60 241 247 241 282 0 7 4 13 8 13 9 0 41 73 66 150 42 128
41 91 41 2040 0 1026 -4 1890 -8 1920 -5 30 -9 63 -10 73 -1 9 -4 17 -7 17 -3
0 -7 10 -7 23 -2 22 -52 147 -62 157 -3 3 -7 10 -8 17 -2 10 -26 48 -71 113
-31 45 -156 166 -202 196 -25 16 -47 31 -50 34 -19 19 -172 87 -215 96 -11 2
-42 8 -70 14 -27 6 -66 12 -85 15 -19 3 -548 5 -1176 5 l-1141 1 1 444 c1 245
-3 445 -7 445 -5 0 -5 5 -1 12 10 17 11 628 1 628 -5 0 -5 5 -1 12 11 17 11
628 0 628 -5 0 -4 6 1 13 6 6 9 23 8 37 -2 14 -6 58 -9 98 -7 79 -48 233 -72
269 -8 12 -14 29 -14 38 0 8 -4 15 -9 15 -5 0 -11 8 -15 18 -23 70 -168 232
-266 297 -25 16 -47 32 -50 36 -15 16 -152 72 -230 93 -96 26 -130 29 -402 30
l-268 1 0 30 c0 16 -2 885 -4 1930 -1 1045 -6 1923 -9 1950 -4 28 -9 86 -11
131 -3 44 -7 87 -10 95 -2 8 -7 39 -10 69 -13 130 -17 166 -22 180 -3 8 -8 29
-10 45 -2 17 -9 57 -14 90 -6 33 -12 71 -14 85 -3 14 -5 25 -6 25 -1 0 -3 7
-5 15 -11 53 -17 78 -21 103 -3 15 -11 51 -19 80 -7 28 -11 55 -9 59 3 5 0 8
-6 8 -7 0 -10 7 -7 15 4 8 2 17 -4 21 -6 3 -8 12 -5 20 3 7 1 16 -4 19 -6 4
-10 14 -10 23 0 30 -125 401 -188 557 -75 187 -180 412 -264 565 -46 84 -190
324 -197 330 -3 3 -12 15 -18 28 -29 50 -39 66 -53 83 -32 37 -40 48 -40 54 0
6 -41 66 -51 75 -3 3 -19 25 -36 50 -17 25 -39 54 -50 65 -10 11 -37 45 -59
75 -23 30 -51 66 -63 80 -11 14 -24 30 -28 35 -17 22 -159 182 -185 208 -16
15 -28 29 -28 31 0 8 -263 262 -349 339 -69 61 -260 215 -331 267 -41 30 -77
57 -80 60 -5 5 -108 76 -139 95 -9 6 -18 12 -21 15 -3 3 -14 10 -25 17 -11 7
-69 43 -130 81 -120 75 -160 98 -309 179 -55 29 -105 53 -112 53 -7 0 -14 4
-16 8 -4 10 -314 152 -331 152 -7 0 -17 4 -23 9 -11 10 -193 79 -324 121 -52
18 -102 34 -110 38 -8 3 -19 7 -25 7 -5 1 -17 5 -25 8 -8 3 -49 15 -90 27 -71
20 -94 26 -130 35 -8 2 -17 4 -20 5 -3 1 -9 3 -15 4 -24 4 -135 29 -184 42
-29 7 -57 11 -62 9 -4 -3 -10 -1 -14 5 -4 6 -9 8 -13 6 -4 -2 -27 0 -52 5 -25
5 -58 11 -75 14 -16 2 -41 7 -55 9 -29 6 -85 14 -235 32 -35 4 -120 13 -185
19 -55 6 -626 15 -631 11z m626 -1799 c61 -9 124 -18 140 -21 17 -2 47 -7 68
-10 21 -4 73 -13 115 -22 83 -17 88 -18 147 -34 22 -6 51 -13 65 -16 23 -5
106 -30 195 -59 219 -72 565 -232 687 -316 14 -11 29 -19 33 -19 4 0 30 -16
56 -35 27 -19 52 -35 55 -35 3 0 23 -13 44 -30 21 -16 43 -30 49 -30 6 0 11
-4 11 -8 0 -4 12 -15 28 -24 31 -19 60 -42 212 -166 77 -64 355 -332 344 -332
-2 0 11 -15 29 -34 17 -18 41 -44 52 -58 11 -13 41 -48 66 -78 65 -79 169
-217 169 -227 1 -4 14 -24 30 -43 17 -19 30 -40 30 -47 0 -7 5 -13 10 -13 6 0
10 -6 10 -13 0 -7 5 -18 12 -25 14 -14 57 -90 117 -204 73 -142 177 -403 211
-533 4 -16 15 -57 25 -90 9 -33 18 -69 20 -80 3 -11 7 -31 10 -45 23 -109 55
-279 61 -330 3 -25 7 -54 9 -65 24 -165 40 -343 50 -560 2 -44 5 -80 5 -80 11
0 20 -1570 9 -1623 -4 -17 -3 -35 2 -38 5 -3 6 -10 3 -16 -8 -12 -14 -454 -17
-1223 l-2 -520 -3557 0 c-2367 0 -3559 3 -3561 10 -5 16 1 3680 6 3775 5 77
21 222 32 291 3 15 7 44 10 65 3 22 7 50 10 64 3 14 8 39 10 55 3 17 13 59 22
95 9 36 17 74 19 85 1 11 3 21 4 23 2 1 4 7 5 12 1 6 3 11 5 13 1 1 3 9 5 17
2 8 15 53 30 100 14 47 27 92 29 100 2 8 16 46 32 84 15 38 27 75 27 83 0 7 4
13 9 13 4 0 8 8 8 18 0 10 4 22 8 28 5 5 15 25 22 44 39 102 169 348 260 490
19 30 40 62 45 71 34 55 162 229 180 244 6 6 16 17 21 26 33 59 445 479 469
479 3 0 20 13 38 29 51 46 176 141 186 141 5 0 11 4 13 9 2 4 29 26 62 47 266
176 530 307 841 417 113 40 326 98 408 112 18 3 39 8 48 11 9 2 32 7 50 9 40
6 74 13 74 15 0 1 18 3 40 5 22 1 47 5 55 8 21 8 71 15 175 23 50 3 91 8 93 9
12 10 514 -5 607 -18z"/>
</g>
</svg>
